Coordinates
version=1
nRows=36
nColumns=30
inDegrees=yes

Units are S.I. units (second, meters, Newtons, ...)
Angles are in degrees.

endheader
time	floatyaw	floatroll	floatpitch	floatx	floaty	floatz	pro_sup_l	deviation_l	flexion_l	cmc_flexion_l	cmc_abduction_l	mp_flexion_l	ip_flexion_l	2mcp_flexion_l	2mcp_abduction_l	2pm_flexion_l	2md_flexion_l	3mcp_flexion_l	3mcp_abduction_l	3pm_flexion_l	3md_flexion_l	4mcp_flexion_l	4mcp_abduction_l	4pm_flexion_l	4md_flexion_l	5mcp_flexion_l	5mcp_abduction_l	5pm_flexion_l	5md_flexion_l
-0.495000	-160.147433	-5.066637	-73.570646	0.082308	-0.181826	-0.015544	99.800418	4.817740	0.407559	15.361327	11.769745	-25.976468	-42.823226	28.582758	6.512089	43.534093	29.406473	24.275566	3.970729	43.425273	28.201665	12.950581	-4.135028	50.961445	34.705056	1.024310	-7.788034	60.052055	41.462424
-0.485000	-160.147433	-5.066637	-73.570646	0.082221	-0.181684	-0.015720	99.890509	4.892530	0.399872	15.381478	11.754254	-25.965615	-42.819600	28.595222	6.511781	43.540626	29.404838	24.265179	3.970250	43.386415	28.179798	12.963843	-4.136932	50.883603	34.664411	1.016728	-7.764643	60.001413	41.420015
-0.475000	-160.147433	-5.066637	-73.570646	0.082101	-0.181538	-0.015908	99.936547	4.965719	0.368565	15.379628	11.740832	-25.959403	-42.814404	28.616107	6.512015	43.542783	29.395196	24.274769	3.970635	43.352382	28.155898	12.996615	-4.136305	50.831180	34.634266	1.027304	-7.745613	59.945888	41.378674
-0.465000	-160.147433	-5.066637	-73.570646	0.081952	-0.181384	-0.016100	99.945639	5.036165	0.321159	15.357898	11.732685	-25.962782	-42.811428	28.636055	6.512756	43.534210	29.376783	24.294983	3.970590	43.320843	28.130545	13.036185	-4.133305	50.802652	34.614422	1.047957	-7.732260	59.894740	41.343810
-0.455000	-160.147433	-5.066637	-73.570646	0.081781	-0.181213	-0.016289	99.935832	5.106079	0.268946	15.324965	11.737431	-25.978039	-42.816989	28.644733	6.514317	43.509534	29.349510	24.311816	3.969033	43.286593	28.103393	13.067275	-4.128271	50.785741	34.599546	1.067313	-7.728576	59.852603	41.317393
-0.445000	-160.147433	-5.066637	-73.570646	0.081593	-0.181015	-0.016475	99.928320	5.179816	0.220443	15.290610	11.768255	-26.000143	-42.833949	28.635837	6.516757	43.465774	29.313986	24.311474	3.965921	43.247485	28.075699	13.079338	-4.121646	50.764152	34.582935	1.079150	-7.739921	59.816720	41.297754
-0.435000	-160.147433	-5.066637	-73.570646	0.081390	-0.180786	-0.016661	99.940244	5.262140	0.175897	15.260054	11.839479	-26.015135	-42.854997	28.610331	6.519129	43.404305	29.272497	24.285617	3.962565	43.208184	28.052146	13.072322	-4.114285	50.725118	34.560566	1.087057	-7.768555	59.778084	41.281078
-0.425000	-160.147433	-5.066637	-73.570646	0.081165	-0.180522	-0.016860	99.981804	5.356311	0.126072	15.231480	11.958774	-26.004157	-42.861110	28.576375	6.519055	43.333134	29.230302	24.234959	3.961104	43.179234	28.040179	13.057269	-4.107938	50.665412	34.533635	1.102217	-7.808715	59.726579	41.263807
-0.415000	-160.147433	-5.066637	-73.570646	0.080906	-0.180222	-0.017090	100.058585	5.462288	0.056788	15.198309	12.121638	-25.952302	-42.828450	28.545094	6.513068	43.267800	29.195989	24.168976	3.963249	43.171557	28.046520	13.050472	-4.105426	50.593645	34.508379	1.135909	-7.845216	59.657796	41.244695
-0.405000	-160.147433	-5.066637	-73.570646	0.080604	-0.179888	-0.017373	100.177035	5.575827	-0.042512	15.155173	12.312588	-25.857711	-42.741503	28.522943	6.497955	43.228604	29.179812	24.100569	3.968932	43.189163	28.072617	13.063506	-4.110049	50.526845	34.492858	1.191360	-7.858294	59.577510	41.225429
-0.395000	-160.147433	-5.066637	-73.570646	0.080258	-0.179528	-0.017725	100.349367	5.689367	-0.170677	15.104576	12.512454	-25.735057	-42.605385	28.504005	6.472808	43.233848	29.190260	24.037448	3.975693	43.224639	28.112049	13.094371	-4.124174	50.481766	34.491932	1.259365	-7.833420	59.500587	41.209532
-0.385000	-160.147433	-5.066637	-73.570646	0.079874	-0.179147	-0.018153	100.594568	5.795091	-0.312059	15.060561	12.706523	-25.610000	-42.449101	28.467257	6.440641	43.292253	29.230687	23.975274	3.979236	43.261100	28.152221	13.125314	-4.147643	50.465234	34.503284	1.319679	-7.770316	59.444077	41.199916
-0.375000	-160.147433	-5.066637	-73.570646	0.079456	-0.178749	-0.018666	100.934092	5.889597	-0.440752	15.046227	12.888174	-25.506995	-42.315850	28.382320	6.408138	43.399138	29.297979	23.898306	3.975009	43.280143	28.179780	13.129973	-4.177020	50.469521	34.517296	1.347719	-7.684518	59.417674	41.195974
-0.365000	-160.147433	-5.066637	-73.570646	0.078991	-0.178325	-0.019273	101.382730	5.978699	-0.529455	15.083778	13.056981	-25.438298	-42.244775	28.222547	6.382908	43.538441	29.383661	23.789581	3.960263	43.270776	28.186328	13.087493	-4.206239	50.475826	34.521320	1.324300	-7.599604	59.417139	41.191829
-0.355000	-160.147433	-5.066637	-73.570646	0.078450	-0.177858	-0.020001	101.936771	6.080502	-0.558614	15.179771	13.214849	-25.401804	-42.254658	27.979932	6.369354	43.688991	29.476261	23.646425	3.935908	43.234070	28.171149	12.997440	-4.228238	50.463916	34.506031	1.245297	-7.535144	59.426000	41.177778
-0.345000	-160.147433	-5.066637	-73.570646	0.077790	-0.177317	-0.020893	102.563792	6.225368	-0.522941	15.313214	13.364160	-25.388517	-42.338301	27.675069	6.365703	43.831934	29.563834	23.492440	3.907468	43.182652	28.140634	12.888529	-4.236600	50.423152	34.470518	1.128102	-7.498229	59.426695	41.145689
-0.335000	-160.147433	-5.066637	-73.570646	0.076969	-0.176668	-0.022002	103.200348	6.452322	-0.434987	15.435626	13.508376	-25.392776	-42.468599	27.356958	6.364509	43.957069	29.636594	23.377408	3.884483	43.137751	28.106386	12.816163	-4.226671	50.360328	34.423879	1.011944	-7.483011	59.415896	41.096109
-0.325000	-160.147433	-5.066637	-73.570646	0.075953	-0.175876	-0.023374	103.762675	6.802164	-0.326364	15.486674	13.652362	-25.416758	-42.610536	27.090732	6.356831	44.066820	29.690174	23.362148	3.877960	43.125669	28.083408	12.847688	-4.196429	50.300863	34.382771	0.949844	-7.476740	59.414074	41.042480
-0.315000	-160.147433	-5.066637	-73.570646	0.074710	-0.174907	-0.025038	104.169273	7.308379	-0.246061	15.419019	13.800574	-25.465992	-42.732066	26.935913	6.337916	44.176366	29.728955	23.493690	3.896147	43.172713	28.087702	13.039571	-4.147500	50.280773	34.365394	0.992831	-7.467576	59.460421	41.008273
-0.305000	-160.147433	-5.066637	-73.570646	0.073204	-0.173729	-0.026996	104.366283	7.988387	-0.254195	15.218569	13.954663	-25.539687	-42.809989	26.922790	6.311131	44.307764	29.766906	23.782266	3.940078	43.297003	28.131912	13.415235	-4.085828	50.329343	34.383273	1.172151	-7.450169	59.591569	41.016375
-0.295000	-160.147433	-5.066637	-73.570646	0.071385	-0.172293	-0.029225	104.343483	8.839209	-0.410837	14.907642	14.113801	-25.623177	-42.830979	27.037265	6.287551	44.477072	29.822782	24.191491	4.001225	43.498292	28.219119	13.952880	-4.020594	50.447970	34.433722	1.488285	-7.427792	59.813033	41.075041
-0.285000	-160.147433	-5.066637	-73.570646	0.069189	-0.170531	-0.031692	104.133683	9.840800	-0.762982	14.528730	14.279212	-25.688260	-42.790697	27.222389	6.280686	44.678021	29.909302	24.646661	4.063285	43.750437	28.337497	14.588707	-3.960655	50.596386	34.497086	1.912826	-7.411792	60.079562	41.168119
-0.275000	-160.147433	-5.066637	-73.570646	0.066550	-0.168354	-0.034367	103.797813	10.966186	-1.335331	14.119151	14.461196	-25.702451	-42.694798	27.398106	6.298444	44.871525	30.021252	25.058020	4.108097	44.002143	28.459782	15.235663	-3.910111	50.696761	34.541686	2.402455	-7.419175	60.298487	41.256240
-0.265000	-160.147433	-5.066637	-73.570646	0.063411	-0.165668	-0.037232	103.405300	12.193249	-2.129888	13.692708	14.685642	-25.642955	-42.563415	27.492121	6.336694	44.991577	30.130847	25.350207	4.123028	44.188768	28.550022	15.812928	-3.866510	50.657299	34.535479	2.918319	-7.467848	60.358701	41.290143
-0.255000	-160.147433	-5.066637	-73.570646	0.059744	-0.162409	-0.040276	103.020781	13.512280	-3.135717	13.239965	14.997824	-25.507833	-42.435250	27.468557	6.378804	44.970670	30.196298	25.486856	4.105834	44.253015	28.576427	16.275924	-3.824004	50.406171	34.459660	3.441540	-7.568728	60.174314	41.230755
-0.245000	-160.147433	-5.066637	-73.570646	0.055550	-0.158572	-0.043488	102.703325	14.926192	-4.345089	12.747381	15.462514	-25.317151	-42.362707	27.340547	6.402413	44.774956	30.181695	25.480399	4.064378	44.167793	28.525297	16.632562	-3.779758	49.922263	34.318487	3.976826	-7.716194	59.724202	41.066984
-0.235000	-160.147433	-5.066637	-73.570646	0.050853	-0.154227	-0.046843	102.515425	16.443519	-5.767731	12.224455	16.159558	-25.100937	-42.391513	27.158941	6.389713	44.430585	30.078463	25.381828	4.011769	43.951907	28.409427	16.934408	-3.738595	49.251430	34.141409	4.541532	-7.881685	59.069152	40.822753
-0.225000	-160.147433	-5.066637	-73.570646	0.045682	-0.149498	-0.050299	102.531871	18.066493	-7.433420	11.722716	17.173244	-24.877361	-42.529096	26.979248	6.334620	44.024874	29.916211	25.252595	3.959909	43.669790	28.265997	17.243197	-3.711726	48.501145	33.975637	5.145227	-8.016131	58.336086	40.548828
-0.215000	-160.147433	-5.066637	-73.570646	0.040050	-0.144546	-0.053805	102.838448	19.778114	-9.377242	11.333583	18.573771	-24.631531	-42.719520	26.818792	6.241958	43.677904	29.755221	25.128067	3.914583	43.411098	28.143145	17.586695	-3.709738	47.811187	33.869478	5.770039	-8.063149	57.672330	40.301283
-0.205000	-160.147433	-5.066637	-73.570646	0.033947	-0.139532	-0.057306	103.517545	21.533383	-11.610614	11.163523	20.392376	-24.308560	-42.847475	26.622878	6.119143	43.494736	29.661777	24.987016	3.873705	43.254418	28.079246	17.924597	-3.734250	47.306322	33.850330	6.361224	-7.978451	57.188116	40.114988
-0.195000	-160.147433	-5.066637	-73.570646	0.027353	-0.134613	-0.060752	104.626207	23.259280	-14.089836	11.298538	22.597699	-23.830257	-42.781320	26.259654	5.966073	43.519448	29.676762	24.742544	3.828793	43.228915	28.082952	18.142073	-3.773768	47.048177	33.906060	6.831598	-7.746523	56.914354	39.984554
-0.185000	-160.147433	-5.066637	-73.570646	0.020260	-0.129945	-0.064100	106.176516	24.865329	-16.697349	11.776150	25.084654	-23.133059	-42.440394	25.554159	5.770879	43.714296	29.793285	24.264661	3.769066	43.293156	28.123720	18.078354	-3.806892	47.009895	33.980869	7.077083	-7.386978	56.798279	39.864065
-0.175000	-160.147433	-5.066637	-73.570646	0.012701	-0.125696	-0.067312	108.126695	26.262856	-19.246570	12.576289	27.683535	-22.212299	-41.852880	24.353563	5.516791	43.978003	29.957602	23.433312	3.687142	43.346357	28.140278	17.584811	-3.811848	47.090608	33.993240	6.997791	-6.949316	56.742802	39.690438
-0.165000	-160.147433	-5.066637	-73.570646	0.004760	-0.122036	-0.070364	110.386264	27.387964	-21.511821	13.628252	30.188364	-21.151463	-41.172020	22.597423	5.199261	44.199720	30.099059	22.206703	3.584941	43.274247	28.068114	16.595946	-3.777938	47.168721	33.874389	6.521926	-6.501531	56.674548	39.425477
-0.155000	-160.147433	-5.066637	-73.570646	-0.003425	-0.119119	-0.073244	112.832487	28.221192	-23.275537	14.821937	32.396392	-20.117453	-40.638464	20.361929	4.845560	44.327861	30.181775	20.679269	3.478076	43.015775	27.878719	15.190700	-3.713443	47.173563	33.614856	5.634813	-6.120244	56.610186	39.101543
-0.145000	-160.147433	-5.066637	-73.570646	-0.011668	-0.117035	-0.075952	115.330421	28.796526	-24.379198	16.015405	34.148893	-19.314829	-40.500803	17.858595	4.525411	44.423169	30.257468	19.101779	3.396948	42.624640	27.615728	13.620953	-3.646031	47.143930	33.298940	4.414216	-5.885825	56.686454	38.849125
